<?xml version="1.0" encoding="utf-8"?>
<!-- Generator: Adobe Illustrator 16.0.0, SVG Export Plug-In . SVG Version: 6.00 Build 0)  -->
<!DOCTYPE svg PUBLIC "-//W3C//DTD SVG 1.1//EN" "http://www.w3.org/Graphics/SVG/1.1/DTD/svg11.dtd">
<svg version="1.1" xmlns="http://www.w3.org/2000/svg" xmlns:xlink="http://www.w3.org/1999/xlink" x="0px" y="0px" width="1024px"
	 height="768px" viewBox="0 0 1024 768" enable-background="new 0 0 1024 768" xml:space="preserve">
<g id="Layer_1" display="none">
	
		<image display="inline" overflow="visible" width="512" height="512" xlink:href="S:\GTA 5 - FiveM\[Images]\SinCity Images\SinCity_Font.png"  transform="matrix(1.9873 0 0 1.9873 4 -110.9922)">
	</image>
</g>
<g id="Layer_5">
	<g>
		<path fill="#FF0000" d="M699.094,757.912c-1.683,0.729-2.594,1.122-2.738,1.18c-5.883,0.846-11.418,0.305-16.608-1.62
			c-1.611-1.125-3.55-2.369-5.816-3.732c-0.882-0.13-1.625-0.283-2.229-0.467c-1.271-1.177-1.816-1.735-1.637-1.674
			c-2.706-0.386-4.578-1.106-5.619-2.165c-0.448-0.818-1.254-1.901-2.417-3.251c-0.678-0.414-1.405-0.831-2.181-1.246
			c-0.776-0.417-1.414-0.803-1.913-1.157c-1.032-1.348-1.823-2.488-2.371-3.425c-2.672-1.832-4.1-3.302-4.28-4.406
			c-0.23-0.119-0.43-0.237-0.594-0.357c-0.167-0.116-0.319-0.293-0.456-0.527c-0.23-0.64-0.7-1.11-1.407-1.411
			c-0.707-0.299-1.137-0.798-1.289-1.495c-1.164-0.828-2.271-1.685-3.32-2.568s-2.157-1.739-3.319-2.567
			c-0.433-0.875-1.325-1.611-2.677-2.21c-0.562-0.357-1.092-0.712-1.592-1.066c-0.496-0.354-0.981-0.766-1.45-1.237
			c-0.491-1.166-0.695-1.662-0.606-1.487c-0.938-0.417-1.689-1.065-2.254-1.943c-0.934-0.709-2.345-1.714-4.234-3.015l-0.129-0.264
			c-1.705-1.008-3.195-1.956-4.473-2.845c-0.407-0.468-1.88-1.619-4.42-3.451c-0.439-0.064-0.846-0.143-1.213-0.235
			c-0.369-0.092-1.01-0.259-1.928-0.504c-0.844-0.012-1.52-0.05-2.023-0.115c-3.813-1.965-5.813-4.008-6.002-6.126
			c-0.191-2.119-1.314-2.178-3.377-0.178c-1.862,1.192-3.844,2.73-5.941,4.615c-2.593,1.24-4.07,1.943-4.438,2.112
			c-0.281,0.343-0.541,0.659-0.773,0.945c-0.236,0.288-0.486,0.574-0.752,0.859c-0.425,3.01-1.094,4.711-2.006,5.103
			c-0.914,0.396-1.047,1.784-0.404,4.169c-0.865,0.858-1.202,1.94-1.006,3.246c0.197,1.309,0.156,2.511-0.117,3.608
			c0.483,1.456,0.869,2.534,1.15,3.232c-0.08,0.059-0.466,0.429-1.158,1.116c-1.963,0.031-2.502,1.27-1.611,3.717
			c-2.539,3.908-9.88,5.574-22.023,5.001c-12.145-0.572-21.756-0.909-28.836-1.007c-0.917-0.244-1.811-0.517-2.68-0.819
			c-0.871-0.301-1.724-0.604-2.561-0.905c-1.287-0.076-3.578-0.686-6.876-1.833c-0.902,0.219-2.017,0.378-3.345,0.475
			c-1.461-0.947-3.042-1.664-4.744-2.151c-1.342-0.889-2.204-2.669-2.578-5.341c-0.378-2.671-0.67-4.763-0.881-6.273
			c0.021-0.347,0.059-0.694,0.113-1.041c0.053-0.348,0.139-0.752,0.254-1.215c1.816-4.148,2.472-7.82,1.965-11.017
			c0.027-1.681,0.521-3.268,1.48-4.762c0.23-0.925,0.486-1.892,0.772-2.902c0.284-1.012,0.557-2.037,0.816-3.077
			c0.605-0.861,1.099-1.666,1.481-2.414c0.259-2.083,0.621-4.063,1.09-5.941c0.469-1.876,0.47-3.979,0.008-6.305
			c0.229-1.968,0.859-3.64,1.887-5.019c1.028-1.376,1.426-3.168,1.193-5.375c0.173-0.692,0.363-1.327,0.572-1.904
			c0.208-0.576,0.415-1.269,0.617-2.079c-0.219-1.741,0.195-3.532,1.241-5.374c1.749-10.933,1.984-16.061,0.707-15.383
			c-1.278,0.679-2.242-1.856-2.895-7.604c0.2-1.331,0.392-2.691,0.577-4.078c0.183-1.391,0.39-2.807,0.62-4.254
			c0.202-0.287,0.669-0.861,1.406-1.721c-0.052-1.623,0.213-3.271,0.794-4.945c0.578-1.673,0.592-3.353,0.035-5.042
			c0.115-0.462,0.45-0.893,1.006-1.291c0.051-0.984,0.488-2.225,1.318-3.722c0.036-0.403,0.092-0.825,0.168-1.258
			c0.074-0.435,0.17-0.881,0.285-1.344c0.26-0.519,0.742-1.149,1.45-1.895c-0.022-1.738-0.019-3.521,0.015-5.348
			c0.029-1.826,0.124-3.577,0.283-5.258c0.273-0.574,0.59-1.063,0.951-1.464c1.928-0.67,2.622-2.021,2.088-4.059
			c-0.549-0.936-0.73-2.3-0.543-4.095c-0.312-1.105-0.684-2.298-1.112-3.581c-0.431-1.281-0.237-2.38,0.577-3.296
			c0.079-0.578-0.035-1.102-0.341-1.57c-0.309-0.467-0.356-0.988-0.147-1.566c0.339-0.054,0.705-0.15,1.099-0.29
			c0.393-0.138,0.807-0.293,1.239-0.461c0.91,0.013,1.777-0.005,2.604-0.051c0.825-0.046,1.727-0.063,2.7-0.05
			c1.617,0.313,3.906-0.438,6.869-2.254c2.961-1.813,6.427-2.838,10.396-3.074c3.412,0.686,6.051,0.691,7.914,0.022
			c2.648-0.427,5.359-0.65,8.135-0.67c2.775-0.019,5.521-0.243,8.233-0.67c0.453,0.007,1.245,0.104,2.372,0.294
			c1.342-0.155,2.611-0.151,3.81,0.009c1.196,0.161,2.313-0.126,3.345-0.866c1.11-0.274,2.542-0.326,4.294-0.158
			c1.749,0.169,3.317,0.35,4.704,0.542c-0.132-0.001,0.653-0.135,2.35-0.401c3.204,0.218,5.593,0.048,7.164-0.51
			c1.965-0.03,3.416-0.04,4.359-0.027c0.941,0.013,1.881-0.031,2.82-0.135c2.663,0.036,4.26,0.03,4.795-0.021
			c1.703-0.557,4.21-0.551,7.524,0.016c2.526-0.195,5.12-0.277,7.785-0.24c2.567-0.37,4.126-0.608,4.675-0.718
			c0.549-0.107,1.283-0.185,2.209-0.231c0.975,0.014,1.923,0.128,2.848,0.344c0.924,0.218,1.873,0.331,2.847,0.344
			c0.916-0.277,2.549-0.282,4.894-0.02c1.177-0.272,2.93-0.249,5.263,0.073c2.937-0.018,5.931-0.063,8.979-0.138
			c3.05-0.072,6.134-0.089,9.252-0.046c1.407,0.367,4.819,0.923,10.242,1.663c5.421,0.74,8.064,1.632,7.938,2.674
			c1.465,0.138,2.916,0.389,4.357,0.756c1.439,0.368,2.938,0.563,4.498,0.584c0.453,0.006,1.051-0.158,1.786-0.496
			c0.734-0.339,1.362-0.504,1.885-0.496c0.975,0.013,2.038,0.189,3.193,0.521c1.153,0.335,2.268,0.568,3.345,0.699
			c1.112,0.248,2.318,0.249,3.616,0.006c1.297-0.242,2.603-0.238,3.908,0.01c0.657,0.243,1.301,0.599,1.934,1.07
			c0.631,0.474,1.309,0.831,2.03,1.072c1.604,0.369,4.119,0.535,7.552,0.494c3.432-0.039,5.643,0.441,6.632,1.439
			c4.33-0.113,7.005,0.532,8.023,1.938c1.588,0.428,3.227,0.913,4.916,1.457c1.687,0.547,3.12,1.466,4.299,2.756
			c0.275,0.468,0.433,1.138,0.478,2.007c0.043,0.87,0.177,1.511,0.402,1.919c0.244,0.584,0.744,0.996,1.5,1.238
			c0.752,0.242,1.308,0.569,1.662,0.979c0.649,1.053,1.022,2.102,1.121,3.146c0.099,1.044,0.424,1.89,0.981,2.535
			c0.68,0.937,0.846,1.837,0.5,2.702c-0.348,0.863,0.293,1.569,1.917,2.113c0.571,2.153,1.453,4.107,2.646,5.864
			c1.189,1.755,2.008,3.709,2.449,5.859c0.181,1.626,0.546,2.906,1.096,3.842c-1.262,3.229-1.029,5.623,0.701,7.183
			c1.729,1.561,2.137,3.784,1.223,6.67c1.473,2.977,2.004,4.636,1.594,4.979c-0.413,0.341-1.316,2.272-2.716,5.789
			c0.536,3.081-0.82,7.41-4.069,12.987c-3.248,5.579-7.446,10.913-12.593,16.001c-5.147,5.09-10.649,9.188-16.509,12.294
			c-5.858,3.109-11.084,3.674-15.676,1.698c-2.085,1.826-4.795,2.89-8.128,3.192c0.996,1.23,2.228,2.438,3.692,3.617
			c0.348,0.699,0.585,1.385,0.711,2.052c0.128,0.67,0.45,1.268,0.971,1.796c-0.052,0.986,0.111,1.9,0.487,2.746
			c0.376,0.847,0.684,1.706,0.922,2.578c0.872,1.463,1.526,3.935,1.964,7.419c0.072,0.233,0.385,1.456,0.943,3.665
			c1.257,1.756,1.441,3.76,0.557,6.009c0.367,0.874-0.081,2.145-1.342,3.808c-0.188,1.795-0.237,2.779-0.15,2.954
			c0.578,0.82,0.836,1.679,0.775,2.576c-0.062,0.897,0.028,1.783,0.268,2.655c-0.138,0.289-0.267,0.605-0.385,0.951
			c-0.119,0.347-0.214,0.665-0.285,0.953c-1.524,1.661-3.445,3.229-5.769,4.703c-2.323,1.477-4.554,2.837-6.688,4.082
			c-0.78,1.033-1.629,1.891-2.548,2.573c-0.921,0.685-1.488,1.459-1.704,2.324c-0.405,0.575-0.771,1.134-1.104,1.681
			s-0.688,1.048-1.061,1.508c-0.622,0.396-1.165,0.751-1.635,1.063c-0.469,0.313-0.941,0.641-1.417,0.981
			c-1.334,1.43-1.902,2.002-1.698,1.716C702.467,755.755,701.033,756.663,699.094,757.912z M668.573,631.313
			c-0.96,1.495-2.179,2.463-3.657,2.906c-2-0.085-4.223,0.463-6.668,1.646c-0.731,0.049-1.532,0.066-2.408,0.055
			c-0.879-0.013-1.643-0.023-2.291-0.031c-0.564,0.166-1.11,0.275-1.646,0.324c-0.536,0.051-1.037,0.104-1.505,0.153
			c-0.507-0.064-1.01-0.13-1.515-0.194c-0.508-0.064-0.997-0.188-1.474-0.367c-0.975-0.016-2.172,0.012-3.588,0.079
			c-1.419,0.067-2.432,0.272-3.037,0.61c-2.656,0.196-4.261,0.29-4.813,0.283c-0.552-0.009-1.185-0.018-1.899-0.027
			c-2.484-0.498-4.771-0.471-6.864,0.08c-0.99,1.088-2.049,2.072-3.182,2.955c-1.135,0.885-2.147,1.812-3.041,2.784
			c-0.18,0.462-1.322,2.882-3.422,7.258c-2.104,4.377-3.225,6.855-3.369,7.433c0.436,3.483,3.879,4.314,10.329,2.489
			c6.452-1.823,10.057-2.556,10.814-2.198c12.319-3.134,23.588-6.631,33.806-10.491c0.721-0.279,1.49-0.485,2.306-0.62
			c0.815-0.131,1.642-0.31,2.479-0.531c2.374-0.895,3.919-2.133,4.642-3.719c0.722-1.584,1.444-3.442,2.173-5.579
			c-1.956-0.78-3.956-1.519-5.998-2.213c-2.043-0.693-3.895-1.633-5.555-2.816C668.908,631.404,668.703,631.314,668.573,631.313z"/>
		<path fill="#FF0000" d="M831.561,752.868c-1.566-0.255-2.769-0.531-3.605-0.833c-2.035,0.32-3.775,0.629-5.218,0.928
			c-1.444,0.301-3.082,0.465-4.916,0.499c-3.371,0.705-5.936,1.192-7.696,1.459c-3.789-0.226-7.052,0.047-9.785,0.821
			c-6.121,3.104-9.091,2.076-8.911-3.079c-0.16-0.41-0.54-0.85-1.139-1.32c-0.153-2.784-1.418-4.252-3.792-4.4
			c-0.463-0.238-1.076-0.652-1.841-1.242c-0.138-0.755-0.272-1.917-0.402-3.484c-0.853-1.286-1.476-2.644-1.869-4.069
			c-0.396-1.426-1.3-2.698-2.714-3.821c-0.232-1.161-0.327-2.352-0.283-3.568c0.042-1.217-0.125-2.378-0.501-3.486
			c1.225-3.866,1.285-7.895,0.178-12.083c-0.015-0.464,0.002-0.985,0.049-1.565c0.046-0.578,0.149-1.185,0.309-1.822
			c1.873-4.378,2.604-7.182,2.192-8.405c0.938-2.188,1.577-5.281,1.922-9.277c-0.297-0.641-0.541-1.299-0.732-1.967
			c-0.192-0.669-0.395-1.354-0.612-2.053c0.519-2.079,0.561-3.558,0.128-4.433c0.244-2.547,0.685-5.296,1.322-8.244
			c0.637-2.946,0.789-5.582,0.455-7.906c2.738-7.846,4.894-14.526,6.464-20.042c1.571-5.513,2.438-8.474,2.604-8.878
			c-1.251-2.567-1.652-4.225-1.204-4.973c0.446-0.746,0.445-2.051-0.002-3.913c-2.044-0.955-2.559-2.483-1.546-4.587
			c1.014-2.103,1.963-4.018,2.852-5.743c-1.28-2.452-1.086-5.06,0.579-7.819c-0.426-1.165,0.273-2.923,2.098-5.274
			c-0.073-0.233-0.216-0.512-0.428-0.833c-0.214-0.32-0.422-0.86-0.623-1.617c0.987-1.087,1.451-2.037,1.395-2.851
			c0.389-0.516,0.818-1.061,1.287-1.633c0.468-0.574,1.106-1.435,1.915-2.584c-0.138-1.277,0.955-2.653,3.278-4.129
			c0.901-1.263,1.517-3.602,1.848-7.018c1.348-2.011,1.929-3.422,1.74-4.237c0.159-0.635,0.166-1.186,0.022-1.652
			c-0.146-0.465-0.205-1.017-0.176-1.653c1.039-1.553,3.112-2.943,6.225-4.177c1.305-0.792,2.51-1.443,3.614-1.949
			c2.632-0.892,6.347-1.535,11.14-1.934c6.206,0.201,10.178,0.214,11.919,0.033c1.737-0.179,3.001-0.407,3.79-0.687
			c0.785-0.278,1.999-0.508,3.642-0.688c1.642-0.182,5.532-0.17,11.676,0.03c0.995,0.187,3.798,0.459,8.401,0.812
			c1.776,0.72,4.537,1.019,8.283,0.897c1.444,0.482,2.263,0.726,2.458,0.728c1.768-0.031,3.77-0.092,6.007-0.177
			c2.237-0.084,3.996,0.054,5.273,0.42c0.512,0.819,1.576,1.195,3.189,1.131c1.612-0.063,3.202,0.03,4.769,0.283
			c0.728-0.048,1.743-0.063,3.042-0.045c2.858,0.562,5.537,0.933,8.034,1.11c2.499,0.181,4.76,0.516,6.789,1.007
			c1.06,0.71,3.313,0.829,6.756,0.354c2.77,0.388,4.586,0.818,5.446,1.293c0.194,0.003,0.537,0.066,1.028,0.188
			c2.987,0.041,6.301,0.87,9.939,2.485c0.064,0,0.159,0.017,0.281,0.047c0.122,0.033,0.249,0.047,0.379,0.049l12.069-2.529
			c-0.18,0.983,0.404,1.253,1.755,0.807c1.436,0.774,2.84,1.024,4.212,0.754c2.367,0.439,3.746,0.922,4.138,1.449
			c8.366,5.392,14.47,9.345,18.306,11.86c3.837,2.519,6.001,8.939,6.49,19.265c0.52,0.528,0.965,1.752,1.334,3.671
			c-0.043,1.739-0.079,3.578-0.105,5.521c-0.029,1.943,0.128,3.669,0.469,5.181c0.07,0.755-0.052,1.506-0.368,2.256
			c-1.276,1.722-2.456,5.009-3.534,9.863c-0.244,1.506-0.446,2.966-0.604,4.384c-0.159,1.42-0.313,2.821-0.464,4.211
			c-0.539,2.95-0.867,4.714-0.977,5.292c-0.113,0.579-0.261,1.243-0.448,1.992c-0.621,1.964-1.169,3.377-1.644,4.239
			c-0.859,1.613-1.98,3.625-3.364,6.041c-1.406,1.72-2.864,3.382-4.371,4.983c-1.509,1.604-2.927,3.236-4.252,4.899
			c-1.327,0.619-2.76,2.048-4.296,4.288c-1.118,0.564-2.176,1.274-3.172,2.13c-0.995,0.856-1.987,1.567-2.976,2.133
			c-0.361,0.401-0.709,0.816-1.043,1.247c-0.336,0.431-0.686,0.846-1.045,1.246c-3.16,2.739-5.336,4.274-6.525,4.606
			c-1.062,0.855-2.051,1.422-2.966,1.698c-0.954,1.204-1.851,1.8-2.694,1.789c-1.776,1.367-3.061,2.335-3.854,2.903
			c-0.382,0.228-0.762,0.438-1.136,0.637c-0.376,0.198-0.676,0.353-0.897,0.466c-0.854,0.801-1.72,1.396-2.599,1.79
			c-2.677,3.152-6.011,4.106-10.001,2.861c-3.992-1.241-7.357-1.217-10.091,0.079c-0.39-0.005-0.769,0.005-1.132,0.028
			c-0.366,0.024-0.709,0.033-1.033,0.029c-0.714,0.512-1.402,0.851-2.062,1.015c-0.661,0.165-1.326,0.417-1.997,0.756
			c-1.567,0.269-2.636,0.369-3.205,0.303c-0.99,0.567-2.014,1.016-3.073,1.349c-0.644-0.297-0.813-0.532-0.511-0.702
			c-1.045,0.276-2.015,0.437-2.905,0.481c-0.892,0.047-1.814,0.148-2.766,0.309c-0.751-0.124-1.471-0.25-2.155-0.375
			c-0.688-0.125-1.357-0.31-2.014-0.551c-0.427-0.121-2.002-0.272-4.727-0.456c-2.726-0.182-4.661-0.457-5.808-0.819
			c-0.333-0.236-0.585-0.473-0.753-0.706c-0.172-0.233-0.356-0.469-0.559-0.703c-2.225-1.538-4.688-1.659-7.39-0.363
			c-2.702,1.297-4.701,2.979-5.999,5.048c-0.168,0.926-0.313,1.765-0.433,2.517c-0.123,0.753,0.021,1.739,0.436,2.962
			c-2.281,2.347-4.47,6.287-6.566,11.823c-2.099,5.537-3.384,9.258-3.858,11.164c-0.377,0.461-0.676,0.877-0.898,1.25
			c-0.225,0.373-0.459,0.791-0.703,1.25c-1.704,1.602-3.936,3.758-6.698,6.474c-2.765,2.717-5.331,4.519-7.705,5.416
			C836.453,751.283,833.934,751.973,831.561,752.868z M891.906,650.827c0.05,0.059,0.989-0.045,2.816-0.311
			c0.921-0.043,2.012-0.232,3.269-0.563c1.651,0.429,3.921-0.178,6.808-1.819c0.324,0.004,0.834-0.075,1.526-0.241
			c0.304-0.169,0.625-0.411,0.964-0.726c0.337-0.313,0.666-0.584,0.984-0.812c0.44,0.065,1.06,0.189,1.863,0.373
			c1.333-0.909,2.617-1.355,3.853-1.338c1.271-0.388,2.572-1.036,3.907-1.946c-0.029,0.117,0.374-0.458,1.212-1.723
			c0.634-0.455,1.741-1.367,3.322-2.737c0.771-0.742,2.404-1.676,4.903-2.802c0.915-1.32,1.431-2.211,1.546-2.674
			c-1.04-0.015-1.932,0.032-2.674,0.137c-0.96-0.07-2.008-0.057-3.14,0.044c-1.134,0.101-2.18,0.115-3.139,0.044
			c-2.83,0.367-5.1,0.45-6.811,0.253c-0.822,0.163-1.985,0.38-3.485,0.647c-1.387-0.193-2.841-0.241-4.364-0.146
			c-1.522,0.096-2.97,0.019-4.34-0.233C898.941,634.633,895.935,640.157,891.906,650.827z"/>
	</g>
</g>
<g id="Layer_3">
	<g>
		<path fill="#FF0000" d="M249.445,336.371c1.47-0.306,2.794-0.533,3.972-0.681c1.175-0.146,2.654-0.699,4.436-1.655
			c0.959-0.313,1.967-0.527,3.026-0.644c1.229-0.506,3.173-1.231,5.833-2.174c2.017-0.428,4.186-0.433,6.505-0.008
			c2.773-0.81,4.669-1.046,5.687-0.706c4.131-1.25,7.336-1.728,9.616-1.436c1.148-0.181,2.192-0.395,3.136-0.643
			c0.943-0.248,1.965-0.365,3.063-0.35c4.018-0.793,7.691-0.938,11.021-0.437c1.334-0.046,2.974,0.009,4.919,0.167
			c2.252-1.08,4.384-1.67,6.394-1.774c2.009-0.104,4.104-0.4,6.285-0.894c3.45,0.309,5.801,0.31,7.054-0.001
			c1.334-0.045,2.913-0.188,4.735-0.425c0.52,0.269,1.62,0.578,3.296,0.928c1.405-0.044,3.551,0.049,6.431,0.285
			c3.083-0.284,5.961-0.113,8.635,0.512c2.672,0.625,5.351,1.151,8.037,1.581c0.511,0.007,1.083,0,1.714-0.025
			c0.63-0.024,1.238-0.033,1.825-0.025c3.507,0.965,5.834,2.825,6.984,5.586c0.09,1.113,0.134,1.962,0.135,2.55
			c1.423,1.654,1.453,4.627,0.09,8.923c-0.138,0.259-0.313,0.519-0.524,0.777c-0.213,0.258-0.342,0.485-0.39,0.68
			c-0.188,1.044,0.094,1.833,0.843,2.365c0.749,0.535,1.326,1.163,1.734,1.887c0.879,0.601,1.425,1.36,1.637,2.277
			c0.211,0.919,0.756,1.677,1.636,2.277c0.417,0.986,0.783,2.167,1.101,3.544c0.464,0.791,2.673,1.213,6.627,1.269
			c-0.594-0.269,0.187,0.134,2.344,1.208c1.561,0.217,3.22,0.632,4.98,1.245c0.797,0.927,1.447,1.556,1.953,1.889
			c0.88,2.365,1.093,5.343,0.64,8.929c-0.984,1.883-2.113,3.682-3.384,5.395c-1.273,1.715-2.449,3.414-3.53,5.098
			c-2.303,2.453-4.558,5.167-6.769,8.141c-1.497,1.289-4.499,2.719-9.005,4.288c-3.06,0.482-5.931,0.425-8.61-0.168
			c-2.682-0.591-5.397-0.973-8.146-1.141c-0.766,0.12-1.502,0.272-2.209,0.459c-0.707,0.186-1.4,0.309-2.075,0.363
			c-3.361-0.372-5.705-0.699-7.03-0.979c-1.636,0.369-3.295,0.544-4.979,0.521c-1.596,0.501-2.885,0.81-3.869,0.927
			c-1.708-0.22-4.443-0.159-8.201,0.181c-2.929-0.628-6.348-0.773-10.252-0.435c-0.513-0.008-1.004-0.029-1.471-0.07
			c-0.469-0.039-0.987-0.095-1.556-0.168c-3.89,0.862-7.958,1.262-12.204,1.204c-2.287,0.623-4.446,0.593-6.48-0.091
			c-3.181,1.266-4.988,1.731-5.417,1.397c-0.863-0.076-1.666-0.105-2.405-0.083c-0.74,0.024-1.454-0.069-2.135-0.273
			c-3.41,0.998-6.082,1.55-8.019,1.654c-2.156,0.689-4.209,1.412-6.162,2.169c-1.952,0.757-3.791,1.06-5.515,0.904
			c-0.905,0.379-1.826,0.759-2.764,1.138c-0.94,0.379-1.89,0.727-2.849,1.039c-1.612-0.022-3.527,0.148-5.748,0.51
			c-3.752,1.19-7.856,2.555-12.318,4.095c-4.462,1.541-8.572,3.655-12.33,6.348c-1.213,1.618-1.169,2.991,0.13,4.121
			c1.298,1.129,2.284,1.959,2.961,2.489c6.281,1.329,10.598,3.317,12.952,5.963c1.757,0.612,3.441,1.519,5.054,2.717
			c2.514,0.819,4.968,1.735,7.361,2.748c2.393,1.014,5.004,1.736,7.836,2.167c2.025,1.009,4.334,1.693,6.927,2.056
			c2.591,0.363,5.201,0.727,7.83,1.09c0.708,0.4,1.538,0.608,2.49,0.622c0.95,0.013,1.878,0.123,2.783,0.331
			c4.197-0.334,8.211-0.44,12.039-0.324c3.828,0.12,7.873-0.118,12.137-0.713c0.879,0.012,1.698,0.038,2.459,0.081
			c0.76,0.046,1.581,0.071,2.459,0.083c2.278-0.294,4.533-0.427,6.768-0.396c2.232,0.031,4.505-0.165,6.815-0.592
			c0.423,0.071,0.85,0.125,1.282,0.164c0.43,0.041,0.902,0.063,1.415,0.068c0.618-0.121,1.247-0.292,1.892-0.513
			c0.642-0.22,2.618-0.926,5.931-2.124c0.69-0.708,1.482-1.384,2.378-2.026c3.732-4.653,7.948-7.862,12.651-9.628
			c3.279,0.111,5.447,1.14,6.507,3.079c1.059,1.942,2.064,4.097,3.018,6.463c0.504,0.923,1.355,2.371,2.553,4.349
			c-0.275,1.108-0.552,2.215-0.828,3.322c-0.276,1.106-0.434,2.183-0.474,3.229c0.211,0.917,0.587,1.69,1.129,2.319
			c0.541,0.629,0.998,1.37,1.374,2.223c-0.341,1.957-0.544,3.802-0.606,5.531c-0.064,1.731-0.143,3.513-0.229,5.341
			c0.707,0.989,1.187,1.716,1.44,2.176c-0.114,0.455-0.151,0.895-0.109,1.321c0.04,0.427,0.057,0.803,0.049,1.127
			c1.091,1.52,2.265,2.924,3.523,4.216c1.257,1.293,1.903,3.051,1.937,5.271c-0.325,1.891-0.682,3.766-1.07,5.623
			c-0.392,1.856-0.532,3.604-0.425,5.238c-0.235,1.827-0.413,3.132-0.535,3.914c-2.367,2.712-4.941,5.077-7.722,7.099
			c-2.782,2.019-5.56,4.024-8.332,6.012c-1.05,0.377-2.612,1.042-4.686,1.993c-2.498,1.471-4.984,2.971-7.46,4.506
			c-2.476,1.534-4.928,3.036-7.351,4.505c-3.092,1.201-6.343,2.3-9.75,3.297c-2.555,0.227-5.252,0.729-8.091,1.507
			c-2.839,0.778-5.458,1.118-7.858,1.019c-2.628,0.813-5.14,1.384-7.536,1.71c-2.396,0.327-4.741,0.669-7.036,1.03
			c-4.84,1.437-9.091,2.13-12.752,2.078c-2.433,0.621-4.71,0.917-6.834,0.887c-1.887,0.495-3.437,0.671-4.649,0.523
			c-2.003,0.365-3.902,0.55-5.705,0.56c-1.804,0.006-3.562,0.063-5.279,0.172c-1.873-0.158-4.071-0.106-6.596,0.154
			c-2.528,0.259-4.498-0.012-5.914-0.816c-0.822,0.053-1.632,0.205-2.428,0.456c-0.797,0.249-1.525,0.371-2.185,0.362
			c-1.188-0.541-2.051-0.911-2.587-1.114c-2.937,0.286-4.952,0.258-6.041-0.083c-1.286-0.149-2.272-0.245-2.96-0.286
			c-0.688-0.043-2.5-0.215-5.438-0.517c-1.133-0.472-2.312-0.749-3.54-0.833c-1.229-0.081-2.405-0.229-3.526-0.439
			c-1.758-0.025-3.557-0.18-5.395-0.467c-1.174-1.193-3.24-2.038-6.201-2.536c-1.743-0.678-3.477-1.307-5.207-1.886
			c-1.729-0.578-3.473-1.176-5.23-1.788c-1.962-1.268-5.099-1.802-9.41-1.601c-2.05-0.616-4.151-1.185-6.299-1.704
			c-2.148-0.519-4.081-1.313-5.797-2.383c-0.197-2.747-1.646-4.009-4.347-3.785c-2.776-1.541-5.85-2.776-9.217-3.705
			c-3.369-0.929-5.827-2.711-7.374-5.346c-2.043-0.942-3.089-1.611-3.138-2.005c0.112-1.63,0.092-2.58-0.062-2.844
			c-2.061-0.289-3.784-0.738-5.176-1.345c-1.264-1.716-2.415-2.844-3.456-3.382c-0.749-0.532-1.292-1.749-1.625-3.649
			c-2.442-1.405-3.924-4.007-4.446-7.806c-0.155-0.263-0.733-0.599-1.734-1.004c-0.212-0.329-0.474-1.346-0.783-3.05
			c-0.335-0.723-0.78-1.448-1.332-2.175c-0.554-0.727-1.109-1.453-1.661-2.181c-0.367-1.181-0.671-2.393-0.911-3.639
			c-0.241-1.245-0.679-2.362-1.314-3.352c0.03-0.717,0.048-1.519,0.048-2.401c0-0.881-0.036-1.78-0.1-2.696
			c0.128-1.109,0.397-2.331,0.805-3.665c0.403-1.333,0.689-2.62,0.851-3.86c0.536-1.562,1.354-3.151,2.458-4.77
			c1.101-1.618,2.091-3.305,2.969-5.058c0.804-1.753,2.108-3.303,3.915-4.65c2.187-2.584,3.906-6.383,5.156-11.399
			c0.593-0.905,1.376-1.76,2.348-2.565c0.972-0.804,1.844-1.722,2.617-2.757c1.072-2.534,2.824-5.581,5.255-9.144
			c1.375-1.091,2.289-2.483,2.75-4.177c0.458-1.692,1.069-3.187,1.833-4.484c1.204-1.29,2.594-2.741,4.172-4.354
			c0.454-0.646,0.918-1.325,1.391-2.039c0.47-0.713,0.906-1.425,1.304-2.14c1.65-1.61,3.83-4.161,6.538-7.653
			c0.975-1.555,1.974-3.208,3-4.959c1.024-1.75,2.43-3.266,4.221-4.548c2.667-1.27,4.638-2.844,5.917-4.722
			c0.723-2.015,2.74-3.916,6.05-5.701c1.577-1.023,3.157-1.834,4.74-2.435c1.582-0.598,3.187-1.508,4.814-2.728
			c1.041-0.638,2.967-1.591,5.783-2.861c4.992-2.937,9.622-4.703,13.886-5.298c3.026-0.938,5.264-1.658,6.711-2.162
			c3.139-1.394,6.263-3.017,9.37-4.87c3.108-1.852,6.304-3.475,9.591-4.868c0.356-0.255,0.7-0.529,1.031-0.819
			C248.608,336.996,248.995,336.691,249.445,336.371z"/>
		<path fill="#FF0000" d="M385.839,520.489c-2.256-1.273-3.59-2.256-4.005-2.948c-0.417-0.692-0.954-2.218-1.614-4.581
			c-0.099-3.137-0.631-6.021-1.592-8.647c-0.229-2.616-0.038-5.081,0.577-7.394c0.612-2.312,1.236-4.738,1.869-7.278
			c0.032-1.306,0.727-3.648,2.083-7.029c0.495-2.279,0.914-4.544,1.254-6.795s1.01-4.349,2.01-6.296
			c0.479-2.802,1.037-5.637,1.68-8.505c0.641-2.865,1.253-5.766,1.838-8.7c1.389-2.921,1.81-5.496,1.266-7.727
			c0.022-0.391,0.755-1.264,2.195-2.617c0.257-1.628,0.413-2.835,0.462-3.62c2.243-3.106,3.458-6.65,3.644-10.636
			c0.341-0.778,0.637-1.524,0.89-2.241c0.25-0.715,0.577-1.43,0.975-2.145c1.35-1.286,2.133-2.518,2.354-3.69
			c-0.295-1.182,0.062-2.612,1.072-4.3c0.86-3.452,1.844-6.509,2.948-9.174c0.154-0.912,0.322-1.809,0.505-2.689
			c0.181-0.881,0.396-1.808,0.64-2.785c0.21-0.256,0.433-0.565,0.67-0.922c0.236-0.354,0.54-0.693,0.915-1.018
			c0.129-0.52,0.285-1.073,0.469-1.659c0.182-0.585,0.347-1.171,0.493-1.758c1.193-2.729,2.111-5.591,2.747-8.589
			c0.637-2.995,1.597-5.892,2.882-8.685c0.366-1.759,0.781-3.501,1.249-5.227c0.466-1.725,0.889-3.5,1.272-5.325
			c0.25-0.715,0.721-1.721,1.414-3.02c0.153-0.913,0.267-1.81,0.34-2.691c0.072-0.881,0.222-1.777,0.45-2.69
			c0.234-0.649,0.489-1.3,0.762-1.95c0.271-0.648,0.569-1.331,0.896-2.046c0.485-3.13,0.785-5.07,0.899-5.82
			c0.112-0.749,0.215-1.745,0.303-2.985c-0.31-1.703-0.559-2.915-0.746-3.638c0.395-3.065,1.207-5.439,2.437-7.123
			c0.04-0.456,0.116-0.979,0.225-1.565c0.109-0.587,0.237-1.173,0.383-1.759c0.211-0.257,0.469-0.483,0.775-0.676
			c0.304-0.191,0.636-0.415,0.994-0.672c1.405-0.045,2.888-0.09,4.442-0.135c1.553-0.043,3.102-0.218,4.649-0.525
			c1.325,0.281,2.65,0.348,3.972,0.202c1.321-0.144,2.679-0.208,4.071-0.189c6.638-0.692,12.049-0.878,16.231-0.56
			c2.637,0.037,4.631,0.063,5.986,0.082c1.354,0.019,2.735,0.005,4.143-0.04c5.321,1.053,10.977,2.832,16.968,5.331
			c3.733,1.228,7.507,2.522,11.321,3.881c3.812,1.361,7.646,2.557,11.505,3.59c0.576,0.336,1.191,0.671,1.843,1.006
			c0.651,0.337,1.346,0.64,2.088,0.911c2.343,0.621,4.853,1.309,7.53,2.064c2.678,0.757,5.095,1.967,7.252,3.629
			c0.578,2.689,1.145,5.277,1.7,7.768c0.554,2.492,0.873,5.045,0.956,7.66c-0.391,2.739-0.908,5.412-1.558,8.016
			c-0.416,0.778-0.823,1.606-1.225,2.483c-0.404,0.876-0.747,1.739-1.03,2.583c-0.416,1.955-0.752,4.043-1.01,6.261
			c-0.261,2.219-0.942,4.071-2.049,5.56c-0.52,2.086-1.247,4.264-2.18,6.537c-0.725,3.193-1.682,5.565-2.877,7.117
			c-0.837,2.473-1.834,4.844-2.986,7.114c-1.156,2.272-2.195,4.676-3.121,7.212c-0.212,0.259-0.396,0.484-0.555,0.678
			c-0.158,0.194-0.308,0.422-0.445,0.68c-0.406,1.63-0.981,3.124-1.725,4.487c-0.744,1.361-1.311,2.824-1.699,4.387
			c-1.285,2.206-2.285,4.741-3,7.605c-0.724,1.428-1.34,2.727-1.853,3.896c-0.097,0.979-0.188,2.008-0.273,3.084
			c-0.085,1.078-0.184,2.14-0.296,3.182c-0.399,1.303-0.768,2.703-1.103,4.201c-0.338,1.499-0.82,2.766-1.444,3.803
			c-0.562,1.953-1.297,4.753-2.206,8.399c-1.088,3.189-2.262,6.424-3.52,9.706c-1.26,3.284-2.761,6.351-4.5,9.201
			c-0.188,0.456-0.396,0.927-0.627,1.413c-0.231,0.487-0.413,0.991-0.542,1.512c-1.123,0.966-1.928,2.721-2.415,5.261
			c-0.716,1.691-1.341,3.461-1.876,5.317c-0.536,1.854-1.015,3.63-1.437,5.321c-0.261,0.457-1.396,1.911-3.403,4.365
			c-0.625,1.627-1.114,2.698-1.464,3.216c-0.504,1.431-0.886,2.373-1.145,2.826c-1.659,1.351-2.647,2.219-2.965,2.606
			c-0.708,1.363-1.748,2.885-3.121,4.564c-2.768,1.074-4.67,2.225-5.71,3.45c-0.146,0.586-0.312,1.172-0.494,1.758
			c-0.183,0.584-0.33,1.107-0.443,1.563c-1.498,0.698-3.845,1.123-7.042,1.275c-0.847,0.447-1.664,0.924-2.452,1.437
			c-3.525,0.277-7.649,0.023-12.376-0.759c-3.36,0.216-5.594-0.108-6.702-0.975c-1.57-1.654-3.568-2.925-5.993-3.808
			c0.072,0-1.49,0.371-4.687,1.112c-2.888,0.091-5.669,0.264-8.342,0.522c-2.673,0.257-4.954-1.131-6.842-4.163
			c-1.14-0.734-2.222-1.109-3.247-1.123c-2.58,1.795-3.401,2.437-2.464,1.926c-1.554,0.045-3.284,0.053-5.187,0.026
			c-0.904-0.207-1.838-0.663-2.802-1.362c-0.966-0.699-1.839-0.957-2.618-0.771C392.565,520.32,389.735,521.066,385.839,520.489z"/>
		<path fill="#FF0000" d="M599.24,535.88c-1.995-1.14-3.731-1.979-5.212-2.522c-1.426-1.067-2.471-2.992-3.134-5.778
			c-0.666-2.786-1.17-4.966-1.511-6.54c0.162-0.65,0.248-1.433,0.255-2.348c1.512-4.293,1.913-8.111,1.203-11.454
			c-0.117-1.896,0.254-3.525,1.107-4.886c0.502-2.607,0.934-4.627,1.291-6.061c0.503-0.842,0.934-1.686,1.293-2.531
			c0.151-2.088,0.381-4.111,0.685-6.068c0.304-1.956,0.15-4.213-0.46-6.771c0.119-1.959,0.644-3.618,1.572-4.978
			c0.925-1.358,1.159-3.186,0.705-5.48c0.031-0.718,0.164-1.401,0.4-2.053c0.234-0.649,0.405-1.333,0.512-2.052
			c-0.425-1.835-0.137-3.728,0.863-5.674c5.608-25.736,8.611-40.872,9.009-45.41c0.395-4.536-0.31-7.014-2.116-7.431
			c-1.758-0.024-3.983-0.152-6.682-0.386c-2.697-0.233-7.525-0.397-14.481-0.494c-1.97-0.354-3.441-0.636-4.418-0.845
			c-3.075-0.042-6.979-0.454-11.704-1.239c-2.109-0.094-4.215-0.271-6.317-0.529c-2.104-0.257-4.181-0.4-6.23-0.429
			c-0.862-0.076-2.616-0.264-5.26-0.563c-2.246-0.423-3.834-1.72-4.761-3.889c0.055-1.698-0.008-4.248-0.188-7.649
			c0.211-0.257,0.436-0.5,0.678-0.726c0.238-0.226,0.464-0.468,0.678-0.726c-0.286-1.507-0.302-2.995-0.047-4.462
			c0.256-1.466-0.044-2.989-0.899-4.57c-0.049-0.393,0.305-0.78,1.063-1.162c-0.124-0.981,0.16-2.12,0.853-3.419
			c-0.122-0.394-0.177-0.77-0.159-1.13c0.015-0.357,0.042-0.767,0.084-1.224l1.292-1.649c-0.252-1.636-0.547-3.258-0.881-4.865
			c-0.335-1.605-0.563-3.193-0.686-4.764c0.333-0.452,0.65-0.839,0.952-1.164c2.195-0.558,2.788-1.758,1.779-3.603
			c-0.773-0.729-1.299-2.011-1.576-3.844c-0.563-0.988-1.215-2.059-1.954-3.213c-0.743-1.152-0.743-2.182-0.001-3.087
			c0.039-0.456-0.174-0.934-0.636-1.431c-0.466-0.497-0.641-0.973-0.526-1.429c0.528-0.057,1.006-0.133,1.434-0.226
			c0.427-0.092,0.885-0.232,1.373-0.422c0.992,0.146,2.009,0.192,3.052,0.141c1.039-0.051,2.111-0.069,3.209-0.054
			c1.676,0.351,2.907,0.564,3.699,0.639c2.562,0.036,5.315,0.042,8.263,0.016c2.944-0.023,5.529-0.38,7.76-1.069
			c0.88,0.012,1.743,0.009,2.596-0.014c0.849-0.02,1.713-0.025,2.593-0.013c2.155,0.488,3.667,0.607,4.54,0.357
			c1.538,0.021,2.724-0.026,3.562-0.146c8.854-0.139,15.314-0.344,19.388-0.615c4.071-0.27,7.694-0.286,10.868-0.046
			c0.291,0.004,0.553-0.008,0.78-0.039c0.228-0.029,0.451-0.043,0.672-0.039c1.487-0.372,3.99-0.534,7.506-0.485
			c3.775,0.772,6.541,0.875,8.3,0.311c2.756-0.158,5.6-0.217,8.529-0.177c2.929,0.041,5.789-0.083,8.58-0.372
			c0.423,0.071,0.827,0.144,1.214,0.213c0.385,0.071,0.836,0.109,1.351,0.116c1.405-0.045,2.78,0.038,4.125,0.253
			c1.34,0.214,2.496,0.002,3.465-0.639c1.691-0.303,4.849,0.003,9.471,0.915c0.366,0.005,0.766-0.054,1.203-0.179
			c0.433-0.125,0.872-0.185,1.311-0.178c3.36,0.374,5.867,0.342,7.519-0.093c1.978,0.027,3.473,0.064,4.491,0.111
			c1.016,0.048,2.009,0.044,2.977-0.008c2.75,0.169,4.492,0.258,5.225,0.268c1.416-0.373,3.99-0.239,7.725,0.401
			c2.67-0.093,5.451-0.055,8.349,0.115c3.538-0.343,5.901-0.54,7.091-0.589c1.008,0.08,2.015,0.241,3.021,0.483
			c1.005,0.244,2.019,0.371,3.045,0.385c1.148-0.18,2.852-0.091,5.115,0.267c1.275-0.113,3.2-0.02,5.771,0.276
			c3.115,0.174,6.797,0.29,11.045,0.348c4.245,0.059,11.105,0.251,20.578,0.577c4.458,0.978,7.665,1.969,9.619,2.976
			c0.657,0.598,1.374,1.262,2.148,1.99c2.059,1.467,3.148,2.984,3.273,4.555c-0.425,0.519-0.872,0.985-1.344,1.402
			c-0.472,0.42-0.816,0.92-1.036,1.505c-0.797,0.839-1.13,2.175-0.997,4.005c-2.027,3.109-2.987,5.351-2.89,6.725
			c1.18,1.454,1.321,2.796,0.429,4.025c0.001,1.176,0.023,2.043,0.069,2.598c0.044,0.558,0.121,1.066,0.225,1.523
			c-0.665,0.906-0.819,1.819-0.461,2.738c-2.189,1.996-3.071,2.736-2.648,2.218c0.06,2.419-0.438,4.112-1.485,5.077
			c-0.08,2.68-1.625,5.044-4.633,7.092c-0.278,1.697-0.611,3.556-1.006,5.574c-0.393,2.021-1.879,3.34-4.457,3.958
			c-2.743,0.095-5.396,0.709-7.957,1.851c-0.823,0.055-1.805,0.09-2.948,0.107c-1.142,0.018-2.08,0.02-2.812,0.01
			c-1.107,0.313-2.417,0.556-3.929,0.729c-0.733-0.01-1.404-0.051-2.009-0.126c-0.607-0.071-1.194-0.146-1.764-0.22
			c-6.461-0.023-10.882,0.031-13.266,0.16c-2.386,0.132-3.874,0.355-4.467,0.674c-2.775,0.224-3.815,0.339-3.118,0.35
			c0.694,0.01,0.604,0.008-0.274-0.004c-3.118-0.174-5.547-0.011-7.286,0.487c-0.584,0.581-1.362,1.045-2.33,1.39
			c-0.967,0.347-1.657,0.746-2.061,1.197c-0.555,0.449-0.849,0.968-0.886,1.556c-0.036,0.588-0.205,1.043-0.506,1.366
			c-0.065,0.26-0.753,2.211-2.064,5.853c-1.313,3.643-4.857,15.421-10.63,35.341c-0.238,0.651-0.443,1.335-0.622,2.05
			c-0.179,0.718-0.365,1.465-0.56,2.247c-0.439,1.17-0.906,2.373-1.396,3.608c-0.494,1.234-0.831,2.667-1.018,4.298
			c-0.603,0.646-1.305,1.175-2.105,1.589c-0.802,0.416-1.329,0.979-1.58,1.694c-0.494,1.104-0.648,2.313-0.46,3.62
			c0.187,1.31,0.004,2.483-0.548,3.521c-0.431,0.845-1.037,1.506-1.817,1.985c-0.781,0.479-1.403,1.205-1.865,2.18
			c-0.913,0.707-1.704,1.971-2.38,3.791c-2.024,1.932-3.313,3.124-3.865,3.572c-2.132,3.827-3.414,6.619-3.853,8.379
			c-1.172,1.16-2.26,3.76-3.267,7.797c-0.425,0.518-0.756,1.036-0.995,1.555c-0.238,0.521-0.49,1.007-0.749,1.461
			c-3.62,3.608-6.014,7.171-7.183,10.684c-1.049,0.966-1.95,2-2.702,3.1c-0.751,1.102-1.552,2.168-2.396,3.203
			c-1.717,0.694-3.192,1.67-4.423,2.928c-1.233,1.257-2.564,2.398-3.996,3.424c-0.39,0.388-1.208,1.456-2.451,3.202
			c-0.561,0.188-1.338,0.504-2.33,0.949c-2.197-0.031-4.166,1.084-5.905,3.349c-0.755,0.382-1.368,0.766-1.829,1.151
			c-2.928,4.665-5.996,5.178-9.202,1.54c-1.636-0.808-4.215-1.367-7.739-1.676c-3.165-1.156-4.98-1.833-5.442-2.035
			c-1.581-0.153-2.885-0.448-3.913-0.888c-1.031-0.441-2.248-0.93-3.655-1.471C601.718,535.816,600.56,535.897,599.24,535.88z"/>
		<path fill="#FF0000" d="M857.862,533.465c-1.148-0.996-2.182-2.152-3.102-3.474c-0.92-1.319-1.9-2.541-2.942-3.667
			c-0.555-0.138-1.122-0.292-1.704-0.466c-0.581-0.17-1.121-0.291-1.616-0.365c-2.213,0.036-3.83-0.263-4.845-0.899
			c-1.019-0.634-2.553-1.555-4.604-2.759c-0.569-0.072-1.041-0.178-1.41-0.314c-0.37-0.134-0.759-0.271-1.164-0.407
			c-0.439-0.006-1.19,0.131-2.252,0.41s-2.014,0.479-2.85,0.598c-2.8,0.027-5.555-0.566-8.265-1.781
			c-2.71-1.214-5.521-1.871-8.433-1.979c-4.794,1.241-8.236,0.606-10.327-1.907c-0.685-1.97-1.157-3.608-1.417-4.921
			c0.047-0.783,0.197-2.119,0.45-4.012c-0.467-1.969-0.653-3.946-0.56-5.939c0.091-1.991,0.162-3.968,0.209-5.928
			c0.405-2.215,0.724-3.779,0.951-4.693c1.178-1.485,1.872-2.357,2.085-2.616c0.771-2.212,1.845-4.158,3.221-5.838
			c0.908-0.706,1.491-1.646,1.748-2.819c0.255-1.172,0.826-2.208,1.714-3.113c0.486-1.366,1.474-3.117,2.963-5.252
			c0.461-1.563,1.116-4.036,1.96-7.424c0.333-0.452,1.154-1.094,2.465-1.927c1.049-1.554,1.832-3.225,2.354-5.017
			c0.518-1.79,1.237-3.495,2.157-5.118c0.088-0.649,0.1-1.286,0.034-1.909c-0.064-0.621-0.008-1.29,0.171-2.008
			c1.172-1.16,1.042-3.449-0.381-6.867c-0.295-1.18-1.037-2.333-2.225-3.463c-0.121-0.393-0.245-0.786-0.366-1.18
			c-0.122-0.394-0.236-0.819-0.343-1.279c-0.946-0.928-1.588-1.591-1.93-1.987c-0.414-0.986-0.859-2.005-1.33-3.058
			c-1.427-1.064-2.542-2.78-3.347-5.144c-1.834-1.79-3.125-3.604-3.879-5.445c-0.754-1.839-1.367-3.874-1.84-6.103
			c-2.573-3.237-4.349-5.844-5.326-7.817c-1.636-1.396-3.564-3.384-5.787-5.963c-0.66-1.186-1.305-2.435-1.93-3.751
			c-0.629-1.315-1.36-2.502-2.2-3.56c-2.042-1.531-3.915-3.451-5.616-5.763c-0.604-0.531-1.219-1.078-1.85-1.643
			c-0.631-0.563-1.276-1.146-1.936-1.743c-0.415-0.986-0.38-2.456,0.107-4.41c0.91-1.294,2.417-2.481,4.525-3.564
			c1.13-1.879,2.667-3.622,4.611-5.23c2.709-1.139,4.747-1.797,6.114-1.974c0.592-0.319,1.317-0.864,2.171-1.637
			c0.941-3.188,3.653-5.961,8.136-8.318c2.465-1.927,4.704-3.399,6.722-4.417c0.862-0.51,1.742-0.873,2.643-1.091
			c0.897-0.215,1.693-0.678,2.385-1.388c0.593-0.318,1.228-0.505,1.904-0.562c0.675-0.055,1.344-0.241,2.014-0.56
			c1.39-1.157,2.956-2.131,4.695-2.925c1.742-0.792,3.457-1.634,5.15-2.527c1.538,0.021,2.656,0.397,3.355,1.125
			c0.7,0.73,1.652,1.626,2.858,2.686c1.063,0.735,1.983,1.694,2.754,2.881c0.768,1.187,1.715,2.18,2.839,2.98
			c1.514,2.177,2.458,3.695,2.834,4.548c1.749,1.528,3.32,3.183,4.714,4.966c1.39,1.784,3.097,3.344,5.116,4.679
			c0.208,0.331,0.564,0.825,1.063,1.485c5.272,3.014,8.98,5.973,11.123,8.877c0.7,0.729,1.496,1.361,2.393,1.896
			c0.895,0.536,1.797,1.039,2.709,1.508c2.165,1.927,3.794,3.419,4.891,4.479c1.094,1.063,2.149,2.057,3.17,2.984
			c2.025,2.186,3.856,2.799,5.493,1.841c0.705-0.774,1.62-1.644,2.743-2.608c3.537-1.521,5.746-2.863,6.625-4.027
			c0.244-0.387,0.613-1.134,1.109-2.238c3.277-2.242,6.28-4.781,9.009-7.621c2.727-2.837,5.74-5.41,9.034-7.717
			c0.673-1.231,1.646-2.33,2.916-3.292c1.266-0.963,2.396-1.96,3.391-2.992c1.658-1.35,2.788-2.347,3.392-2.992
			c0.641-1.102,1.133-1.749,1.475-1.94c1.513-0.764,2.383-1.306,2.61-1.63c1.479-2.397,3.972-4.585,7.478-6.563
			c1.904-2.327,4.399-4.089,7.49-5.289c2.271,0.032,4.113,0.449,5.53,1.252c0.497,0.661,1.008,1.337,1.533,2.031
			c0.523,0.693,1.117,1.339,1.776,1.937c1.417,1.392,2.66,2.732,3.737,4.021c1.074,1.29,2.551,2.437,4.432,3.443
			c0.91,1.059,2.029,2.104,3.352,3.133c1.322,1.033,2.521,2.045,3.596,3.04c1.139,0.736,2.271,1.42,3.4,2.057
			c1.125,0.637,2.146,1.485,3.058,2.542c2.515,1.996,4.33,3.851,5.447,5.565c1.651,1.331,3.442,2.989,5.372,4.976
			c1.237,2.109,3.491,3.97,6.764,5.584c2.931,2.393,4.318,4.34,4.165,5.841c-0.334,0.453-0.686,0.905-1.055,1.357
			c-0.372,0.452-0.642,0.873-0.812,1.263c-0.983,3.06-2.512,5.063-4.586,6.015c-3.098,2.702-5.332,4.437-6.695,5.201
			c-1.604,2.005-3.771,4.065-6.504,6.185c-1.114,1.228-2.269,2.322-3.464,3.285c-1.715,0.697-2.995,1.478-3.837,2.35
			c-0.842,0.87-1.926,1.754-3.251,2.65c-1.131,1.292-2.033,2.261-2.709,2.903c-1.528,0.829-2.835,1.792-3.915,2.888
			c-1.083,1.097-2.533,1.764-4.355,1.999c-2.173,0.754-3.857,1.906-5.051,3.459c-1.197,1.552-2.572,2.938-4.123,4.158
			c-1.123,1.553-1.48,2.104-1.074,1.65c-4.578,3.927-7.826,7.083-9.745,9.474c-0.628,1.038-1.249,1.912-1.866,2.621
			c-1.619,0.894-4.095,2.722-7.431,5.484c-0.772,1.036-1.522,2.056-2.249,3.059c-0.729,1.003-1.5,1.956-2.313,2.859
			c-1.382,1.42-3.021,3.423-4.915,6.01c-0.618,1.888-1.53,3.409-2.737,4.57c-1.209,1.159-2.256,2.485-3.141,3.975
			c-0.732,0.578-1.316,1.226-1.75,1.938c-0.436,0.713-0.929,1.295-1.482,1.744c-1.398,2.072-2.6,4.164-3.602,6.274
			c-1.006,2.109-1.986,4.205-2.945,6.281c-2.042,2.586-4.045,5.174-6.012,7.76c-1.969,2.587-3.92,5.109-5.855,7.565
			c-0.292,0.585-0.654,1.592-1.084,3.024c-0.976,1.554-1.676,2.886-2.098,3.99c-0.448,0.32-1.354,1.158-2.72,2.511
			c-1.367,1.354-2.46,2.352-3.28,2.993c-1.587,1.939-2.938,4.046-4.056,6.316c-1.117,2.273-2.128,4.481-3.028,6.624
			c-0.409,0.452-1.804,1.187-4.186,2.198c-1.205,0.702-2.334,1.471-3.386,2.304c-1.053,0.837-2.301,1.342-3.739,1.518
			c-1.294-0.409-2.562-0.641-3.798-0.688C860.409,533.712,859.148,533.613,857.862,533.465z"/>
	</g>
</g>
<g id="Layer_2">
</g>
<g id="Layer_4">
	<path fill="#FF0000" d="M284.479,54.409c1.535,0.705,2.791,1.237,3.773,1.592c0.98,0.355,1.802,1.263,2.467,2.715
		c1.221,0.93,2.773,1.561,4.661,1.891c1.884,0.331,3.599,0.659,5.143,0.983c0.436,0.311,0.813,0.602,1.13,0.871
		c0.317,0.272,0.736,0.564,1.259,0.874c2.766,1.255,4.618,2.231,5.556,2.929c1.486,0.554,2.821,1.294,4,2.224
		c1.18,0.929,2.475,1.822,3.888,2.678c1.07,1.538,1.729,2.497,1.975,2.88c0.115,0.914,0.276,1.64,0.485,2.174
		c1.582,1.545,2.653,2.738,3.213,3.582c0.455,0.234,0.943,0.413,1.471,0.534c0.525,0.121,1.067,0.262,1.626,0.421
		c1.135,0.928,2.104,2.369,2.901,4.319c0.797,1.952,1.354,3.653,1.678,5.102c0.4,3.201,0.478,6.397,0.241,9.589
		c-0.241,3.192-0.118,6.39,0.367,9.591c-0.114,0.455-0.163,0.911-0.148,1.368c0.015,0.457,0.016,0.876,0.008,1.255
		c0.512,2.061,0.489,3.698-0.069,4.906c-0.219,1.215-0.29,2.449-0.217,3.706c0.071,1.255,0.083,2.494,0.037,3.709
		c0.607,1.683,0.313,3.2-0.878,4.553c-1.278,2.721-2.911,3.517-4.894,2.386c-1.985-1.129-4.063-1.634-6.23-1.512
		c-1.781,1.649-3.5,1.854-5.158,0.613c-1.024-1.384-2.417-3.001-4.18-4.851c-1.858-1.47-4.688-2.804-8.497-3.997
		c-1.128-0.624-2.237-0.981-3.326-1.073c-1.089-0.09-2.193-0.296-3.31-0.617c-1.262-0.776-3.16-1.564-5.698-2.361
		c-0.703,0.067-1.297,0.136-1.783,0.204c-0.488,0.069-0.988,0.1-1.5,0.093c-3.732-0.81-6.597-1.155-8.594-1.031
		c-0.922-0.087-2.805-0.076-5.656,0.036c-3.108-0.573-7.147-0.327-12.118,0.746c-0.427-0.006-0.853-0.012-1.278-0.018
		c-0.429-0.005-0.853-0.011-1.279-0.018c0.445-0.068-0.768,0.333-3.636,1.206c-0.665-0.083-1.236-0.188-1.719-0.309
		c-0.483-0.12-0.961-0.259-1.436-0.419c-2.746,0.723-4.985,0.958-6.72,0.706c-2.188,0.198-4.517,0.623-6.988,1.272
		c-3.212,0.185-5.319,0.574-6.322,1.169c-1.44,0.285-3.989,0.897-7.643,1.834c-2.528,0.877-6.516,1.433-11.961,1.661
		c-0.854,0.673-1.824,1.307-2.912,1.9c-1.091,0.595-0.829,1.434,0.783,2.521c2.443,1.176,4.243,2.189,5.4,3.042
		c1.042,0.625,2.722,1.255,5.044,1.896c2.397,1.707,4.006,2.794,4.832,3.262c1.771,0.786,3.533,1.608,5.287,2.47
		c1.751,0.862,3.576,1.609,5.471,2.243c0.757,0.392,1.509,0.974,2.261,1.743c1.259,0.778,2.564,1.461,3.914,2.051
		c1.349,0.589,2.758,1.198,4.228,1.827c0.692,0.314,1.375,0.572,2.053,0.77c0.676,0.2,1.414,0.42,2.21,0.658
		c0.218,0.157,1.32,1.045,3.311,2.671c2.549,1.102,6.248,2.901,11.099,5.402c1.297,1.313,2.736,2.32,4.313,3.027
		c1.576,0.706,3.042,1.602,4.398,2.686c1.666,0.861,4.026,2.377,7.077,4.547c2.064,1.323,4.304,2.724,6.715,4.202
		c2.411,1.479,4.456,3.142,6.133,4.991c0.368,0.918,0.849,1.82,1.443,2.701c0.592,0.884,1.159,1.785,1.7,2.705
		c-0.143,2.966-0.354,5.702-0.635,8.208c1.09,4.2-0.219,8.252-3.929,12.156c-0.861,0.37-1.364,0.666-1.505,0.892
		c-0.275,1.442-0.858,2.671-1.753,3.686c-0.894,1.015-1.674,2.164-2.334,3.448c-0.663,0.601-1.242,1.201-1.732,1.802
		c-2.397,1.034-3.935,2.571-4.615,4.615c-0.454,2.504-0.833,4.022-1.134,4.549c-1.404,0.819-2.427,1.755-3.075,2.811
		c-0.648,1.058-1.414,2.148-2.292,3.278c-0.059,1.596-0.297,2.734-0.723,3.414c-3.183,1.097-5.669,3.002-7.457,5.716
		c-0.503,0.298-0.978,0.577-1.427,0.837c-0.45,0.261-0.884,0.54-1.299,0.838c-2.642,3.387-4.45,5.15-5.424,5.288
		c-1.327,2.569-4.29,5.19-8.89,7.866c-2.434,0.499-4.834,1.379-7.202,2.639c-3.599,0.712-6.02,1.326-7.259,1.84
		c-2.057,0.353-4.054,0.82-5.995,1.401c-2.274,0.197-4.141,0.476-5.598,0.836c-1.09-0.09-2.173-0.03-3.252,0.184
		c-0.313,0.223-0.792,0.599-1.434,1.121c-5.437,1.22-9.149,1.699-11.138,1.444c-0.663,0.601-1.228,0.972-1.69,1.117
		c-3.931,0.328-7.317,1.041-10.157,2.143c-1.535-0.021-3.043,0.283-4.524,0.908c-1.484,0.626-3.035,0.928-4.653,0.905
		c-2.425-0.564-4.663-0.595-6.712-0.092c-2.05,0.505-4.137,0.896-6.258,1.169c-3.192,0.11-6.45,0.481-9.772,1.121
		c-0.598-0.008-1.113-0.089-1.542-0.25c-0.432-0.157-0.809-0.276-1.13-0.357c-1.621,0.662-2.208,0.959-1.761,0.889
		c-1.962-0.027-3.765,0.176-5.412,0.609c-1.648,0.434-3.358,0.601-5.129,0.501c-3.57,0.94-5.167,1.336-4.787,1.188
		c-2.246-0.259-3.97-0.206-5.171,0.157c-1.241-0.169-2.046-0.371-2.417-0.604c-0.984,0.519-2.291,0.958-3.919,1.315
		c-1.108-0.016-2.134,0.067-3.075,0.243c-0.943,0.177-1.883,0.259-2.821,0.246c-2.927,1.101-6.615,1.318-11.067,0.646
		c-1.334,0.21-2.637,0.363-3.898,0.459c-1.265,0.097-2.428,0.214-3.488,0.352c-1.715-0.327-3.398-0.521-5.05-0.583
		c-1.654-0.061-3.295-0.254-4.924-0.582c-1.819,0.432-4.403,0.168-7.757-0.791c-0.786,0.066-1.581,0.168-2.386,0.309
		c-1.875-0.025-3.727,0.025-5.555,0.151c-1.545-0.324-3.104-0.67-4.682-1.034c-1.576-0.364-5.437-1.273-11.573-2.727
		c-1.602-0.782-4.907-1.931-9.918-3.446c-0.541-0.236-1-0.451-1.378-0.647c-0.38-0.194-0.753-0.41-1.123-0.643
		c-0.474-0.158-0.961-0.259-1.463-0.305c-0.502-0.045-0.916-0.107-1.236-0.188c-1.961-1.396-3.806-2.409-5.528-3.043
		c-0.371-0.234-1.911-0.749-4.618-1.548c-2.247-0.944-4.683-2.062-7.312-3.353c-2.629-1.292-4.513-3.086-5.65-5.385
		c-0.324-1.448-0.522-2.364-0.598-2.747c-2.313-3.074-3.879-7.774-4.695-14.101c0.122-0.834,0.197-1.652,0.226-2.451
		c0.026-0.798,0.146-1.613,0.354-2.448c0.424-1.364,1.026-2.915,1.802-4.655c1.041-1.429,1.564-2.849,1.575-4.257
		c0.008-1.407,0.096-3.137,0.267-5.189c0.244-1.668,1.134-3.179,2.668-4.527c1.059-0.822,1.839-1.8,2.335-2.935
		c0.496-1.134,1.143-2.267,1.938-3.397c1.211-0.743,2.115-1.625,2.712-2.644c0.594-1.02,1.365-2.053,2.314-3.106
		c1.95-0.961,4.226-3.746,6.829-8.351c2.338-1.489,3.806-2.915,4.402-4.276c1.562-1.12,3.579-2.004,6.051-2.655
		c4.811-0.085,6.929,1.542,6.353,4.881c-0.285,0.453-0.68,1.265-1.185,2.437c-0.507,1.173-0.889,2.099-1.143,2.78
		c-0.352,1.746,0.854,3.778,3.611,6.098c0.655,1.149,1.132,1.975,1.436,2.473c0.303,0.5,0.678,1.056,1.124,1.67
		c0.151,0.764,0.325,1.527,0.521,2.29c0.194,0.764,0.408,1.528,0.647,2.291c0.199,0.231,1.132,0.777,2.8,1.637
		c0.064,0.078,1.897,0.444,5.499,1.102c0.85,0.012,1.75,0.007,2.698-0.02c0.948-0.024,1.889-0.03,2.828-0.018
		c1.012-0.289,2.045-0.485,3.097-0.585c1.051-0.1,2.11-0.408,3.182-0.926c5.74-0.377,11.184-1.632,16.336-3.769
		c0.444-0.068,0.916-0.159,1.413-0.266c0.497-0.106,1.021-0.232,1.57-0.377c0.945-0.367,3.379-0.866,7.302-1.497
		c1.04-0.745,2.39-1.183,4.048-1.313c1.675-0.89,4.545-1.764,8.607-2.62c-0.124,0.151,1.419-0.209,4.631-1.077
		c2.556-1.334,4.772-1.989,6.648-1.963c1.818-0.432,3.644-0.9,5.483-1.408c1.837-0.506,3.781-0.936,5.838-1.289
		c0.738-0.218,1.97-0.695,3.693-1.432c1.182-0.287,2.417-0.518,3.701-0.691c1.281-0.171,2.601-0.401,3.956-0.687
		c0.217-1.213-1.267-2.299-4.448-3.256c-3.354-2.329-6.638-4.086-9.849-5.271c-1.753-0.86-3.538-1.76-5.356-2.698
		c-1.819-0.938-3.402-2.139-4.748-3.604c-4.737-1.586-8.045-3.42-9.919-5.5c-4.509-1.811-8.403-3.691-11.681-5.639
		c-3.002-0.65-5.942-1.64-8.816-2.974c-2.876-1.333-5.75-2.59-8.619-3.771c-4.851-2.501-8.076-4.144-9.677-4.927
		c-1.935-1.168-3.895-2.393-5.884-3.676c-1.99-1.283-3.753-2.619-5.287-4.01c-2.796-1.482-4.658-3.448-5.586-5.897
		c0.084-1.368,0.111-2.851,0.083-4.45c-1.687-0.782-3.17-2.211-4.449-4.284c-0.333-1.754-0.595-3.621-0.784-5.602
		c-0.192-1.98-0.881-3.853-2.064-5.62c-0.285-0.917-0.181-1.675,0.312-2.278c2.706-1.255,5.069-4.38,7.084-9.374
		c0.103-1.443,0.207-2.888,0.31-4.333c0.103-1.442,0.249-2.887,0.438-4.33c1.029-3.79,1.762-6.212,2.199-7.273
		c1.285-1.732,2.341-3.049,3.166-3.95c1.145-0.821,2.118-1.549,2.918-2.186c0.799-0.634,2.24-1.698,4.324-3.192
		c3.172-1.401,6.437-2.745,9.793-4.031c3.355-1.283,6.696-2.59,10.021-3.913c2.889-0.263,6.302-1.435,10.242-3.511
		c2.441-0.194,4.837-0.618,7.181-1.27c2.344-0.653,4.755-1.15,7.238-1.498c2.101-0.884,3.782-1.621,5.042-2.213
		c2.368-0.576,4.829-1.189,7.388-1.838c2.555-0.649,5.215-1.03,7.983-1.146c2.859-0.492,5.204-0.801,7.032-0.93
		c1.864-0.961,4.141-1.35,6.833-1.161c1.922-0.505,4.915-1.188,8.978-2.044c2.651-0.343,4.371-0.548,5.157-0.614
		c1.513-0.587,3.598-1.052,6.25-1.397c1.051-0.442,2.258-0.653,3.623-0.635c1.362,0.02,2.697-0.191,4.006-0.629
		c3.419,0.352,6.681,0.131,9.789-0.664c3.104-0.793,6.339-1.243,9.702-1.35c2.225-0.349,4.829-0.503,7.814-0.462
		c1.372-0.361,4.001-0.097,7.884,0.793c1.535,0.021,3.102-0.089,4.703-0.334c1.6-0.244,3.248-0.506,4.944-0.787
		c0.917,0.089,1.853,0.196,2.806,0.323c0.95,0.128,1.895,0.198,2.833,0.21c1.439-0.283,3.011-0.415,4.718-0.391
		c1.705,0.024,3.405-0.105,5.101-0.386c3.816,0.128,6.474,0.28,7.97,0.452c2.46-0.269,4.896-0.426,7.302-0.469
		c1.866,0.408,3.197,0.729,3.992,0.967c1.637-0.052,3.25,0.008,4.832,0.181c1.579,0.175,3.232,0.235,4.958,0.183
		c1.223,0.245,2.459,0.51,3.715,0.792C281.863,54.013,283.153,54.238,284.479,54.409z"/>
	<path fill="#FF0000" d="M718.098,41.296c0.112,0.229,0.319,0.423,0.625,0.579c0.301,0.157,0.613,0.275,0.937,0.355
		c2.301,0.716,4.416,1.755,6.346,3.111c1.927,1.359,3.962,2.548,6.104,3.565c-0.153-0.077,0.714,0.733,2.6,2.432
		c1.809,0.635,4.146,0.362,7.005-0.816c4.811-0.085,9.131,1.458,12.96,4.629c1.819,0.938,3.006,2.096,3.56,3.473
		c0.554,1.377,1.314,2.871,2.282,4.481c-0.054,2.282-0.003,4.299,0.16,6.051c-0.247,2.355-0.335,4.771-0.266,7.243
		c0.066,2.474-0.108,4.888-0.521,7.24c0.028,0.913,0.048,1.769,0.064,2.568c0.014,0.799,0.097,1.581,0.25,2.343
		c-0.663,1.97-1.104,3.562-1.319,4.774c0.389,1.528,0.431,2.65,0.123,3.368c-0.309,0.72-0.485,1.687-0.532,2.903
		c0.304,1.527,0.438,2.956,0.407,4.285c-0.033,1.331,0.112,2.723,0.437,4.171c-0.321,1.291-0.628,2.427-0.915,3.411
		c-0.29,0.986-0.254,2.127,0.108,3.425c-0.813,4.63-2.341,8.184-4.583,10.664c-0.615,1.437-0.692,3.453-0.224,6.045
		c-0.171,1.368-0.339,2.393-0.51,3.074c0.152,6.926-1.028,13.034-3.543,18.324c0.721,4.651-0.049,8.597-2.31,11.836
		c-0.276,1.442-0.639,3.757-1.091,6.946c-0.993,2.269-1.49,6.142-1.485,11.62c-0.294,1.519-0.609,2.958-0.95,4.323
		c-0.339,1.364-0.583,2.502-0.723,3.414c0.059,1.826-0.027,3.537-0.253,5.131c-0.513,1.362-0.866,2.613-1.063,3.752
		c0.076,2.437-0.308,4.656-1.147,6.66c-0.843,2.004-1.088,4.189-0.734,6.551c-0.293,2.203-0.563,3.798-0.809,4.782
		c0.096,2.361-0.496,8.249-1.774,17.664c-1.278,9.417-2.072,15.263-2.383,17.541c-0.275,0.758-0.603,2.58-0.978,5.464
		c-0.769,1.358-1.502,2.757-2.201,4.192c-0.7,1.437-1.565,2.68-2.596,3.73c-0.521,1.744-1.726,4.255-3.613,7.539
		c-1.89,3.283-4.025,4.566-6.411,3.849c-2.646-1.406-4.734-2.119-6.269-2.14c-2.055,2.407-5.369,3.006-9.943,1.803
		c-1.063-0.547-2.856-1.752-5.386-3.613c-1.905-0.939-3.931-1.993-6.075-3.165c-2.146-1.17-4.153-1.958-6.02-2.366
		c-1.6,1.272-3.758,2.042-6.478,2.307c-0.946-0.315-1.955-0.9-3.025-1.753c-3.137-0.803-6.92-1.237-11.353-1.298
		c-4.318,2.223-7.602,3.473-9.852,3.745c-2.249,0.273-5.694-0.23-10.335-1.512c-2.824,0.342-5.073,0.272-6.749-0.207
		c-4.264-2.113-7.557-3.489-9.876-4.13c-0.616,0.068-2.142,0.695-4.573,1.877c-1.213,0.06-3.473-0.314-6.778-1.12
		c-3.013-2.324-5.912-5.103-8.699-8.337c-0.246-1.068-0.58-2.137-0.995-3.208c-2.104-1.855-4.481-5.957-7.131-12.309
		c-2.651-6.351-4.664-10.715-6.04-13.092c-0.351-0.308-0.753-0.581-1.207-0.816c-0.454-0.234-0.814-0.505-1.079-0.813
		c-1.424-1.845-4.36-5.156-8.814-9.936c-4.454-4.778-7.412-8.014-8.87-9.708c-2.057-1.701-3.407-2.975-4.05-3.822
		c-1.044-1.992-3.762-3.704-8.149-5.133c-4.392-1.43-7.311-3.028-8.75-4.799c-2.13-0.714-2.918-0.991-2.357-0.832
		c-1.193,0.668-1.848,2.085-1.958,4.253c-0.114,2.167-0.227,3.819-0.339,4.959c-0.444,0.755-1.844,2.068-4.19,3.936
		c-0.473,3.267-0.915,5.733-1.33,7.4c0.105,4.036-0.471,7.887-1.728,11.559c-1.261,3.674-1.469,7.608-0.634,11.802
		c0.066,2.132,0.039,3.615-0.082,4.45c-0.986,1.204-1.618,2.45-1.895,3.739c-0.28,1.291-0.664,2.578-1.156,3.864
		c-0.654,2.958-0.91,4.591-0.772,4.896c0.139,0.306,0.106,1.713-0.089,4.221c-0.494,1.288-1.002,2.554-1.526,3.802
		c-0.525,1.248-0.887,2.441-1.084,3.579c0.835,5.566-1.972,8.417-8.422,8.558c-2.435-0.87-4.278-1.543-5.527-2.017
		c-4.035-0.284-8.966-0.922-14.79-1.916c-0.91,0.216-1.857,0.584-2.841,1.102c-4.471,0.092-9.179-0.583-14.122-2.021
		c-1.688-0.098-3.453-0.562-5.301-1.386c-1.847-0.824-3.396-0.447-4.645,1.135c-1.772,1.27-3.571,2.309-5.397,3.12
		c-0.683-0.009-1.322-0.019-1.918-0.026c-0.598-0.008-1.194-0.017-1.79-0.024c-1.005,0.596-1.768,1.079-2.287,1.452
		c-1.327-0.17-2.471-0.3-3.431-0.39c-0.963-0.088-2.021-0.559-3.176-1.414c-1.42-0.476-2.374-0.603-2.856-0.381
		c-2.643-0.721-5.254-0.718-7.828,0.006l-3.182,0.413c-1.546-0.324-3.076-0.784-4.597-1.376c-1.521-0.591-3.017-1.2-4.483-1.831
		c-0.608-0.312-1.039-0.642-1.294-0.988c-0.256-0.345-0.526-0.635-0.81-0.867c-2.104-0.485-3.108-1.259-3.012-2.324
		c0.497-5.773,1.281-11.146,2.349-16.115c1.066-4.967,3.426-14.769,7.074-29.401c0.076-0.302,0.453-2.162,1.134-5.576
		c0.831-2.651,1.44-5.438,1.829-8.362c0.385-2.922,1.08-5.708,2.084-8.359c1.428-2.642,2.718-7.304,3.871-13.983
		c1.493-5.988,3.36-10.566,5.604-13.731c0.188-0.756,0.547-1.855,1.078-3.294c0.699-2.804,1.473-5.743,2.325-8.812
		c0.851-3.069,1.862-5.926,3.036-8.574c0.208-0.833,0.43-1.724,0.667-2.672c0.236-0.948,0.477-1.914,0.724-2.9
		c1.237-2.568,2.104-4.839,2.596-6.811c0.754-3.716,1.624-7.376,2.607-10.977c0.982-3.598,1.948-7.294,2.894-11.086
		c0.537-1.818,1.039-3.655,1.503-5.514c0.463-1.857,1.233-3.578,2.313-5.161c1.644-5.911,3.729-11.703,6.256-17.373
		c1.835-3.245,3.452-7.673,4.852-13.285c0.16-0.3,0.941-1.202,2.343-2.706c0.613-3.49,1.237-5.991,1.871-7.506
		c2.564-3.084,5.438-4.832,8.62-5.245c0.672-0.293,1.223-0.363,1.655-0.206c0.43,0.16,1.016,0.128,1.755-0.09
		c0.159-0.301,0.368-0.623,0.625-0.961c0.255-0.339,0.558-0.695,0.909-1.071c1.259-0.591,2.572-1.049,3.935-1.373
		c1.363-0.324,2.76-0.778,4.19-1.369c2.716-3.689,5.965-3.684,9.745,0.02c0.456,0.235,1.068,0.434,1.841,0.596
		c0.771,0.165,1.996,0.484,3.673,0.964c1.297,0.628,2.339,1.174,3.119,1.641c0.782,0.467,1.655,0.822,2.622,1.063
		c0.596,0.008,1.286-0.191,2.075-0.598c0.784-0.407,1.556-0.758,2.314-1.053c0.388,0.16,1.079,0.472,2.075,0.942
		c1.581,0.175,3.149,1.261,4.703,3.26c0.826,3.206,2.161,5.051,4.01,5.533c2.671,0.266,4.878,1.02,6.621,2.26
		c1.743,1.242,3.66,2.638,5.757,4.188c1.941,0.788,3.358,1.455,4.248,1.999c1.857,2.156,4.7,4.136,8.528,5.937
		c2.273,1.857,4.771,4.022,7.49,6.494c1.421,1.161,2.864,2.227,4.335,3.198c1.467,0.973,2.888,1.962,4.265,2.969
		c1.619,2.761,3.605,4.576,5.954,5.445c0.605,0.313,1.496,0.858,2.672,1.634c1.648,2.305,3.389,4.423,5.218,6.348
		c1.829,1.928,3.796,3.818,5.899,5.673c0.341,0.689,0.643,1.361,0.91,2.009c0.263,0.651,0.62,1.283,1.066,1.897
		c0.52,0.312,1.675,0.822,3.466,1.532c1.488,1.237,3.528,2.484,6.127,3.736c1.126,1.311,2.673,2.662,4.634,4.058
		c3.544,5.68,7.451,9.042,11.726,10.09c2.082-0.808,3.263-2.541,3.541-5.201c0.278-2.658,0.79-4.971,1.538-6.939
		c1.183-1.656,2.247-4.38,3.192-8.172c1.779-2.333,3.558-5.695,5.338-10.083l3.876-4.739c1.482-4.24,2.612-7.229,3.391-8.968
		c0.386-2.58,1.236-4.623,2.554-6.128c0.548-1.513,1.204-3.025,1.966-4.538c0.761-1.51,1.51-3.06,2.249-4.647
		c1.334-1.579,2.321-4.342,2.964-8.29c0.653-0.903,1.325-1.882,2.018-2.939c0.688-1.056,1.465-2.109,2.327-3.164
		c0.435-1.743,1.279-3.843,2.533-6.298c1.254-2.454,2.846-4.126,4.778-5.013c1.447,0.021,2.769-0.304,3.964-0.972
		c1.191-0.668,2.535-1.258,4.033-1.771c2.302,0.032,6.046-0.753,11.236-2.356c1.192,0.017,2.643,0.208,4.348,0.574
		s3.002,0.138,3.893-0.688c0.718-2.196,2.147-3.469,4.289-3.821C713.998,40.403,716.164,40.813,718.098,41.296z"/>
	<g id="XMLID_1_">
		<g>
			<path fill="#FF0000" d="M455.59,77.04c0.49,12.76-1.46,25.28-5.08,37.52c-0.21,0.7-0.63,1.33-1.06,2.21
				c4.98,2.38,4.11,6.11,2.87,10.56c-9.2,33.14-18.14,66.35-27.23,99.52c-4.48,16.37-9.12,32.69-13.67,49.04
				c-1.03,3.7-2.52,4.81-6.51,4.74c-0.52,1.5-1.04,3.01-1.64,4.72c4.25,2.14,4.2,5.56,2.94,9.53c-1.88,5.94-3.35,12-5.28,17.91
				c-1.07,3.25-3.56,4.25-6.84,3.34c-26.13-7.25-52.25-14.53-78.39-21.76c-3.7-1.02-7.5-1.71-11.17-2.83
				c-3.66-1.12-6.52-2.97-5.06-8.06c1.84-6.4,3.51-12.85,5.35-19.25c0.84-2.91,2.4-3.76,6.43-3.77c0.5-1.72,0.97-3.35,1.44-4.97
				c-3.82-2.67-4.2-4.71-3.12-8.59c5.75-20.49,11.22-41.06,16.88-61.57c5.52-20,11.16-39.97,16.72-59.95
				c2.52-9.01,5.19-17.98,7.41-27.06c1.35-5.55,2.9-6.33,7.38-6.75c3.82-16.04,10.11-30.85,20.28-44.02
				c7.47-9.66,15.64-18.48,26.15-24.8c7.16-4.3,14.54-8.23,21.91-12.17c2.2-1.18,5.85,0.51,7.53,3.36
				c4.01,6.81,8.27,13.5,11.73,20.59C452.08,47.89,455.02,62.26,455.59,77.04z"/>
		</g>
		<g>
		</g>
	</g>
</g>
</svg>